<svg xmlns="http://www.w3.org/2000/svg" xmlns:svg="http://www.w3.org/2000/svg" xmlns:xlink="http://www.w3.org/1999/xlink" id="svg8" width="32" height="32" version="1.1" viewBox="0 0 8.467 8.467"><defs id="defs2"><linearGradient id="linearGradient851"><stop style="stop-color:#fff;stop-opacity:1" id="stop847" offset="0"/><stop id="stop857" offset=".263" style="stop-color:#cbcbcb;stop-opacity:.72112596"/><stop id="stop855" offset="1" style="stop-color:#cbcbcb;stop-opacity:.71892089"/></linearGradient><linearGradient id="linearGradient853" x1="4.399" x2="4.399" y1=".564" y2="8.468" gradientUnits="userSpaceOnUse" xlink:href="#linearGradient851"/></defs><metadata id="metadata5"/><g id="layer1"><path style="fill:url(#linearGradient853);fill-opacity:1;fill-rule:nonzero;stroke:none;stroke-width:.507409;stroke-linecap:round;stroke-linejoin:round;stroke-miterlimit:4;stroke-dasharray:none;stroke-dashoffset:0;stroke-opacity:1;image-rendering:auto" id="rect1404" d="m 2.38125,0.52916664 h 3.7041666 c 1.0260542,0 1.8520833,0.82602916 1.8520833,1.85208336 v 3.7041666 c 0,1.0260542 -1.1242963,0.9977729 0.1322917,2.38125 H 0.396875 c 0,0 0.13229164,-1.3551958 0.13229164,-2.38125 V 2.38125 c 0,-1.0260542 0.82602916,-1.85208336 1.85208336,-1.85208336 z"/><path style="fill:none;fill-opacity:1;fill-rule:nonzero;stroke:#000;stroke-width:.54266041;stroke-linecap:round;stroke-linejoin:round;stroke-miterlimit:4;stroke-dasharray:none;stroke-dashoffset:0;stroke-opacity:.79949;image-rendering:auto" id="rect1406" d="m 0.26458333,8.2020833 c 1.05965307,-1.0575336 0,-0.9440334 0,-2.1166667 V 2.38125 c 0,-1.1726333 0.94403337,-2.11666667 2.11666667,-2.11666667 h 3.7041666 c 1.1726333,0 2.1166667,0.94403337 2.1166667,2.11666667 v 3.7041666 c 0,1.1726333 -1.0584678,1.0579746 0,2.1166667"/><rect id="rect1408" width="7.924" height="7.924" x=".271" y=".271" rx="2.117" ry="2.117" style="display:none;fill:none;fill-opacity:1;fill-rule:nonzero;stroke:red;stroke-width:.542724;stroke-linecap:round;stroke-linejoin:round;stroke-miterlimit:4;stroke-dasharray:none;stroke-dashoffset:0;stroke-opacity:1;image-rendering:auto"/></g></svg>